HIERARCHY
ROOT Hips
{
	OFFSET 0.000000 0.000000 0.000000 
	CHANNELS 6 Xposition Yposition Zposition Yrotation Zrotation Xrotation 
	JOINT Lumbar
	{
		OFFSET 0.000000 0.000000 0.000000 
		CHANNELS 3 Zrotation Xrotation Yrotation
		JOINT Neck
		{
			OFFSET 0.000000 0.445665 0.000000 
			CHANNELS 3 Zrotation Xrotation Yrotation
			End Site
			{
				OFFSET 0.000000 0.227535 0.000000 
			}
		}
		JOINT RightShoulder
		{
			OFFSET 0.019635 0.377685 0.194865 
			CHANNELS 3 Zrotation Xrotation Yrotation
			JOINT RightElbow
			{
				OFFSET 0.000000 -0.243375 0.000000 
				CHANNELS 2 Zrotation Yrotation
				JOINT RightWrist
				{
					OFFSET 0.000000 -0.264825 0.000000 
					CHANNELS 2 Zrotation Xrotation
					End Site
					{
						OFFSET 0.006600 -0.176220 0.000990 
					}
				}
			}
		}
		JOINT LeftShoulder
		{
			OFFSET 0.019635 0.377685 -0.194865 
			CHANNELS 3 Zrotation Xrotation Yrotation
			JOINT LeftElbow
			{
				OFFSET 0.000000 -0.243375 0.000000 
				CHANNELS 2 Zrotation Yrotation
				JOINT LeftWrist
				{
					OFFSET 0.000000 -0.264825 0.000000 
					CHANNELS 2 Zrotation Xrotation
					End Site
					{
						OFFSET 0.006600 -0.176220 -0.000990 
					}
				}
			}
		}
	}
	JOINT RightHip
	{
		OFFSET 0.052140 -0.069960 0.075570 
		CHANNELS 3 Zrotation Xrotation Yrotation
		JOINT RightKnee
		{
			OFFSET 0.000000 -0.402270 0.000000 
			CHANNELS 1 Zrotation
			JOINT RightAnkle
			{
				OFFSET 0.000000 -0.404085 0.000000 
				CHANNELS 3 Zrotation Xrotation Yrotation
				End Site
				{
					OFFSET 0.204105 -0.089430 0.008415 
				}
			}
		}
	}
	JOINT LeftHip
	{
		OFFSET 0.052140 -0.069960 -0.075570 
		CHANNELS 3 Zrotation Xrotation Yrotation
		JOINT LeftKnee
		{
			OFFSET 0.000000 -0.402270 0.000000 
			CHANNELS 1 Zrotation
			JOINT LeftAnkle
			{
				OFFSET 0.000000 -0.404085 0.000000 
				CHANNELS 3 Zrotation Xrotation Yrotation
				End Site
				{
					OFFSET 0.204105 -0.089430 -0.008415 
				}
			}
		}
	}
}
MOTION
Frames: 27
Frame Time: 0.02
-1.47707 -0.52908 -0.57015 744.18435 0.03684 -9.17755 14.82529 1.5011 -7.25013 -23.32676 24.80812 -2.11994 2.4686 -6.04101 28.69373 121.74275 98.99509 16.781 0.50775 15.25635 4.31931 -28.88863 107.92839 -52.94938 35.80851 6.35196 76.93117 -14.09873 -8.42545 -64.18476 -10.39142 -3.09476 -3.92245 81.32701 2.06289 7.27129 -68.31833 -11.21505 3.75917 4.31098
-1.477 -0.52916 -0.57016 744.21075 0.07171 -9.17714 14.73775 1.50316 -7.22788 -23.29204 24.86029 -2.11994 2.17016 -6.12611 28.4746 121.78335 98.86448 17.25407 0.40968 15.19974 4.27483 -29.06474 108.03395 -52.61906 36.78273 6.37116 76.8949 -14.14811 -8.48583 -64.20047 -10.38658 -3.09247 -3.92194 81.28942 2.0645 7.294 -68.33196 -11.20689 3.75881 4.31019
-1.47701 -0.52926 -0.57015 744.23927 0.09418 -9.178 14.62741 1.50266 -7.20693 -23.12995 24.95578 -2.11994 1.95175 -6.19194 28.12955 121.76251 98.73593 17.83683 0.29979 15.24412 4.20395 -29.2709 108.11741 -52.94854 37.46966 6.32854 76.87587 -14.17843 -8.5181 -64.2088 -10.38087 -3.09152 -3.92277 81.26376 2.06927 7.32528 -68.33529 -11.19597 3.75869 4.30938
-1.47697 -0.52934 -0.57015 744.26482 0.12159 -9.17793 14.5331 1.50282 -7.1891 -23.03545 25.02676 -2.11994 1.71074 -6.26478 27.81792 121.75344 98.6002 18.40028 0.19269 15.2508 4.15006 -29.45785 108.1979 -53.03566 38.23758 6.3071 76.84831 -14.2211 -8.5722 -64.22022 -10.37356 -3.08927 -3.92241 81.23387 2.06949 7.34536 -68.34347 -11.1867 3.75896 4.30889
-1.47694 -0.52944 -0.57016 744.29835 0.15283 -9.1791 14.41611 1.50459 -7.15611 -22.90296 25.1169 -2.11994 1.41484 -6.34358 27.60147 121.81042 98.49075 18.84014 0.0956 15.22869 4.07171 -29.66696 108.33356 -52.88135 39.21166 6.31445 76.82208 -14.25176 -8.59476 -64.23334 -10.37376 -3.08956 -3.92418 81.19811 2.08269 7.39515 -68.35175 -11.17558 3.75727 4.30716
-1.47693 -0.52952 -0.57014 744.31613 0.1737 -9.17815 14.3392 1.50279 -7.15476 -22.81825 25.17818 -2.11994 1.25148 -6.4061 27.1611 121.71814 98.3257 19.55787 -0.02453 15.28826 4.03949 -29.83941 108.35048 -53.37163 39.70201 6.24878 76.79713 -14.30018 -8.67145 -64.24093 -10.35877 -3.08519 -3.92208 81.17682 2.06999 7.38604 -68.35714 -11.16773 3.75962 4.30795
-1.47696 -0.52948 -0.5701 744.28754 0.15763 -9.17022 14.39458 1.48927 -7.24087 -22.89541 25.14556 -2.11994 1.42928 -6.42629 26.10758 121.20299 98.02499 21.0594 -0.20837 15.54916 4.13917 -29.87988 108.02558 -55.66505 38.76491 5.97794 76.77997 -14.41935 -8.93355 -64.23497 -10.29816 -3.06554 -3.90744 81.20424 1.98113 7.2061 -68.35602 -11.16963 3.77373 4.31615
-1.477 -0.52941 -0.57004 744.24345 0.13319 -9.16024 14.48837 1.47271 -7.35855 -23.02449 25.08328 -2.11994 1.73825 -6.43126 24.83935 120.54473 97.66599 22.82799 -0.41407 15.8878 4.28689 -29.8865 107.58499 -58.55568 37.37616 5.63876 76.76244 -14.5538 -9.24541 -64.22359 -10.22308 -3.04154 -3.88915 81.2441 1.86687 6.96798 -68.35235 -11.17492 3.79177 4.32681
-1.47704 -0.52937 -0.56999 744.20809 0.12001 -9.15185 14.5538 1.45926 -7.46156 -23.13059 25.03698 -2.11994 1.98998 -6.44486 23.68525 119.96852 97.32067 24.44637 -0.6081 16.18983 4.41446 -29.92398 107.2101 -61.04947 36.30301 5.34332 76.73961 -14.66953 -9.51446 -64.21469 -10.15732 -3.02096 -3.87356 81.27066 1.76666 6.76036 -68.35048 -11.17868 3.80758 4.33608
-1.47708 -0.52929 -0.56993 744.16587 0.07582 -9.14097 14.6635 1.43858 -7.56632 -23.23111 24.9813 -2.11994 2.2342 -6.45086 22.45229 119.3174 97.02565 26.19253 -0.81109 16.50124 4.53438 -29.89774 106.78021 -64.08093 34.76792 4.99343 76.73966 -14.83346 -9.86658 -64.20561 -10.08005 -2.99445 -3.85367 81.32915 1.65566 6.53521 -68.34584 -11.18235 3.8253 4.34652
-1.47712 -0.52929 -0.56988 744.134 0.0933 -9.13448 14.69164 1.43206 -7.67448 -23.35544 24.93795 -2.11994 2.52456 -6.46891 21.33991 118.79029 96.61679 27.73184 -0.99895 16.80981 4.68149 -29.9951 106.43627 -66.14416 34.07422 4.73996 76.69271 -14.902 -10.05948 -64.19554 -10.02319 -2.97911 -3.84177 81.32486 1.56146 6.33348 -68.34613 -11.18697 3.83995 4.35508
-1.47715 -0.52954 -0.56984 744.13665 0.29259 -9.1433 14.47476 1.46731 -7.7881 -23.54882 24.9321 -2.11994 2.9057 -6.52752 20.56495 118.63118 95.86662 28.65633 -1.1528 17.09407 4.89608 -30.44717 106.37076 -65.22363 35.96574 4.78377 76.50798 -14.69385 -9.78651 -64.18555 -10.02757 -2.9968 -3.85368 81.13636 1.51651 6.20346 -68.36375 -11.19399 3.84532 4.35795
-1.47718 -0.52989 -0.56979 744.1499 0.55253 -9.15613 14.17656 1.51655 -7.90336 -23.76217 24.93999 -2.11994 3.32877 -6.59819 19.92793 118.6039 95.01151 29.35841 -1.28837 17.37158 5.13551 -31.02319 106.39385 -63.33314 38.69441 4.92504 76.27742 -14.39118 -9.35449 -64.17456 -10.05274 -3.02565 -3.8736 80.88566 1.48995 6.10034 -68.38593 -11.20175 3.84744 4.35881
-1.47721 -0.53018 -0.56975 744.15683 0.77859 -9.16534 13.9225 1.55816 -8.01538 -23.95633 24.94413 -2.11994 3.7357 -6.66108 19.26051 118.52277 94.23156 30.14806 -1.42341 17.65024 5.36125 -31.53958 106.36766 -61.99389 40.93986 5.01203 76.07308 -14.13798 -9.00444 -64.16302 -10.06751 -3.04866 -3.88928 80.66848 1.45714 5.98951 -68.40398 -11.2088 3.85097 4.36053
-1.47724 -0.53052 -0.5697 744.16936 1.03108 -9.18198 13.63932 1.60512 -8.139 -24.19429 24.93754 -2.11994 4.1366 -6.73318 18.45105 118.41097 93.33391 31.00586 -1.59575 17.9406 5.5997 -32.07081 106.37399 -60.219 43.59644 5.13695 75.84591 -13.85728 -8.61459 -64.1553 -10.08579 -3.0748 -3.90736 80.4295 1.41454 5.85747 -68.43041 -11.21756 3.85496 4.36258
-1.47728 -0.53078 -0.56966 744.17319 1.24298 -9.18425 13.39714 1.6442 -8.23847 -24.34585 24.95591 -2.11994 4.55624 -6.78909 17.97071 118.39627 92.65688 31.66321 -1.68678 18.20292 5.81583 -32.59844 106.33701 -59.10154 45.60997 5.20918 75.65547 -13.61185 -8.26998 -64.13978 -10.10191 -3.09708 -3.92238 80.2211 1.39704 5.77691 -68.44076 -11.22288 3.85713 4.36342
-1.47733 -0.53078 -0.56962 744.14849 1.32831 -9.14496 13.28646 1.65883 -8.27019 -24.24744 25.04909 -2.11994 5.03405 -6.79816 18.38706 118.61875 92.62044 31.83652 -1.54858 18.3976 5.97347 -33.10791 106.14329 -60.13447 45.56718 5.09243 75.57717 -13.48135 -8.08216 -64.10038 -10.1068 -3.10624 -3.92709 80.11131 1.44417 5.83059 -68.40336 -11.21857 3.85541 4.36151
-1.47739 -0.53068 -0.56957 744.11511 1.37067 -9.09131 13.21992 1.66494 -8.27743 -24.0624 25.16552 -2.11994 5.52547 -6.79041 19.12713 118.93528 92.81031 31.81025 -1.33052 18.56226 6.10582 -33.60563 105.90646 -61.84164 44.86143 4.92285 75.53758 -13.39048 -7.94627 -64.05373 -10.10893 -3.11111 -3.92847 80.03463 1.516 5.93555 -68.35006 -11.21075 3.85191 4.35842
-1.47744 -0.53063 -0.56953 744.08705 1.43254 -9.04482 13.13405 1.67448 -8.29629 -23.92095 25.26517 -2.11994 5.99907 -6.78996 19.70572 119.20817 92.89126 31.86587 -1.15525 18.73503 6.24349 -34.09428 105.69998 -63.17243 44.5155 4.79132 75.48052 -13.28518 -7.79114 -64.0121 -10.11245 -3.11778 -3.93132 79.94333 1.57685 6.01837 -68.30546 -11.20447 3.84897 4.35576
-1.47752 -0.53057 -0.56949 744.05355 1.49666 -8.99564 13.04236 1.68629 -8.31352 -23.76217 25.3908 -2.11994 6.52344 -6.79153 20.34889 119.48778 92.98824 31.95671 -0.95299 18.9314 6.40819 -34.64761 105.45079 -64.76335 43.9652 4.60581 75.42108 -13.16188 -7.61265 -63.96301 -10.11599 -3.12543 -3.93455 79.84785 1.63764 6.09776 -68.25467 -11.19842 3.84693 4.35346
-1.47754 -0.53051 -0.56943 744.02915 1.54504 -8.94878 12.97426 1.69124 -8.32783 -23.61893 25.46855 -2.11994 6.94462 -6.78458 20.93354 119.776 93.11438 31.92261 -0.78692 19.07105 6.51014 -35.0624 105.2796 -65.9874 43.65492 4.51646 75.3767 -13.08622 -7.49653 -63.92792 -10.11871 -3.12994 -3.93617 79.77004 1.70377 6.1954 -68.21312 -11.19109 3.84269 4.3502
-1.47744 -0.53048 -0.56927 744.03225 1.56062 -8.91024 12.96151 1.67863 -8.344 -23.53705 25.40045 -2.11994 7.07756 -6.75891 21.26668 120.04861 93.19843 31.65735 -0.75218 19.06547 6.44585 -35.09095 105.331 -66.01719 44.32189 4.72668 75.36212 -13.13711 -7.54661 -63.93187 -10.1183 -3.12606 -3.9336 79.73048 1.78213 6.33725 -68.19932 -11.1806 3.83227 4.34424
-1.47729 -0.53044 -0.56908 744.04473 1.56147 -8.87479 12.97123 1.65947 -8.35738 -23.47414 25.2846 -2.11994 7.1058 -6.72472 21.52907 120.32958 93.31418 31.26515 -0.75502 19.00311 6.31901 -34.9805 105.46294 -65.66216 45.22549 5.03127 75.36202 -13.2342 -7.65721 -63.95035 -10.11728 -3.11924 -3.92956 79.70828 1.86432 6.49453 -68.19558 -11.16902 3.81982 4.33742
-1.47717 -0.53041 -0.56891 744.05268 1.56875 -8.83898 12.97031 1.64366 -8.36941 -23.40431 25.19594 -2.11994 7.18185 -6.69434 21.83277 120.61619 93.46372 30.88583 -0.73229 18.96408 6.22015 -34.93814 105.55931 -65.49899 45.91064 5.27803 75.35711 -13.3075 -7.73654 -63.96325 -10.11751 -3.11426 -3.92653 79.68006 1.94226 6.64022 -68.18843 -11.15826 3.80872 4.33124
-1.47703 -0.53037 -0.56873 744.06137 1.57594 -8.79835 12.97249 1.62591 -8.39147 -23.32452 25.08561 -2.11994 7.25795 -6.66503 22.11749 120.86422 93.42956 30.67652 -0.74044 18.9344 6.12232 -34.87711 105.64838 -65.28776 47.02179 5.58524 75.34616 -13.39383 -7.83354 -63.97196 -10.11379 -3.1071 -3.92201 79.64518 2.03141 6.80637 -68.1762 -11.14605 3.79582 4.32402
-1.47691 -0.53034 -0.56856 744.07098 1.58005 -8.7686 12.97326 1.61082 -8.39248 -23.27083 25.00794 -2.11994 7.30829 -6.62995 22.41031 121.19596 93.76761 30.10069 -0.69699 18.87224 6.0078 -34.81905 105.77419 -65.07574 47.33502 5.79069 75.35057 -13.46358 -7.90738 -63.99243 -10.1179 -3.10372 -3.9202 79.62775 2.09815 6.93376 -68.17665 -11.13659 3.78613 4.31873
-1.47685 -0.53037 -0.56848 744.07966 1.58187 -8.76877 12.96244 1.60416 -8.33484 -23.28732 25.03915 -2.11994 7.31849 -6.5972 22.82838 121.73344 95.24764 28.41878 -0.47922 18.73309 5.86349 -34.82789 105.96615 -64.96229 45.17275 5.68307 75.39539 -13.4755 -7.90328 -64.04653 -10.1463 -3.11246 -3.92696 79.65576 2.09873 6.94262 -68.21412 -11.13556 3.78643 4.31939
